<svg xmlns="http://www.w3.org/2000/svg" xmlns:v="https://svgstorm.com"
viewBox = "0 0 534 528"
width="534"
height="528">
<g fill="None" fill-opacity="0.0" stroke="#000000" stroke-opacity="0.00" stroke-width="0.3"><path d="
M 0.00 528.00 
L 534.00 528.00
L 534.00 0.00
L 0.00 0.00
L 0.00 528.00
M 290.00 97.00 
C 295.72 111.05 271.35 113.51 274.00 99.00
C 275.62 90.15 286.44 88.26 290.00 97.00
M 253.00 103.00 
C 258.52 105.24 254.31 114.52 248.33 111.67 C 242.34 108.82 246.41 100.33 253.00 103.00
M 331.00 123.00 
C 330.95 123.49 331.00 124.00 331.00 124.00
C 326.18 133.85 312.01 129.54 314.00 118.00 C 315.99 106.46 338.17 113.79 331.00 123.00
M 286.00 155.00 
C 284.60 158.56 283.06 161.68 281.00 165.00
C 278.78 168.58 275.87 172.57 274.00 176.00
C 272.29 179.96 270.96 184.03 269.00 188.00
C 260.98 209.74 269.36 227.54 277.00 247.00
C 279.16 252.51 282.17 257.80 282.00 264.00
C 283.74 254.90 283.95 243.20 285.98 233.98 C 288.00 224.75 293.19 219.42 298.70 212.70 C 304.20 205.97 321.63 203.89 310.00 213.00
C 308.95 213.49 308.02 213.59 307.00 214.00
C 303.87 215.74 301.11 219.83 298.00 222.00
C 297.80 222.40 298.00 223.00 298.00 223.00
C 293.69 233.97 287.95 246.39 293.00 258.00
C 297.13 253.61 301.83 250.71 306.25 246.25 C 310.67 241.78 314.15 238.51 318.75 233.75 C 323.35 228.99 324.27 223.57 327.32 217.32 C 330.37 211.07 329.12 204.84 332.93 197.93 C 336.74 191.01 341.03 204.92 339.00 211.00 C 336.97 217.08 335.87 224.11 333.00 230.00
C 340.47 224.47 360.64 218.23 361.00 233.00
C 356.33 233.00 351.67 233.00 347.00 233.00
C 341.67 234.55 336.01 236.66 331.00 239.00
C 320.99 244.95 307.26 256.13 300.00 266.00
C 299.33 267.08 298.78 268.78 298.00 270.00
C 291.57 280.14 289.62 284.81 287.00 297.00 C 284.39 309.19 292.83 315.17 299.00 324.00
C 299.40 324.20 300.00 324.00 300.00 324.00
C 303.46 325.36 314.57 330.13 309.00 334.00
C 306.01 336.08 302.98 334.52 300.00 334.00
C 296.60 333.40 292.86 333.35 290.00 332.00
C 289.50 332.05 289.00 332.00 289.00 332.00
C 280.33 332.00 271.67 332.00 263.00 332.00
C 262.50 332.00 261.50 332.00 261.00 332.00
C 257.59 333.45 252.13 333.37 248.00 333.00
C 242.71 331.79 254.25 325.02 257.75 321.75 C 261.25 318.49 264.70 309.08 265.00 303.00 C 265.30 296.92 266.68 287.18 264.22 280.78 C 261.76 274.38 256.35 271.54 252.00 267.00
C 251.56 266.84 251.00 267.00 251.00 267.00
C 233.68 260.20 220.00 247.49 216.00 229.00
C 213.81 228.48 210.38 230.14 209.00 228.00
C 208.50 228.05 208.00 228.00 208.00 228.00
C 199.53 226.35 200.10 212.50 208.22 211.22 C 216.35 209.95 222.83 217.61 223.00 225.00
C 223.01 225.50 223.00 226.00 223.00 226.00
C 228.53 232.81 229.36 245.51 239.70 249.30 C 250.04 253.09 255.89 260.48 266.00 264.00
C 266.24 256.59 263.23 249.43 259.75 243.25 C 256.26 237.08 251.37 233.64 247.25 227.75 C 243.13 221.87 239.87 217.53 238.07 209.93 C 236.27 202.32 232.91 195.87 233.07 186.93 C 233.24 177.98 231.32 173.55 223.78 169.22 C 216.24 164.89 234.13 160.03 236.90 168.10 C 239.67 176.17 244.19 180.82 243.00 190.00
C 242.97 190.50 243.00 191.50 243.00 192.00
C 246.27 199.70 244.12 211.65 253.00 217.00
C 253.00 216.00 253.00 215.00 253.00 214.00
C 252.74 213.76 253.00 211.39 253.00 211.00
C 252.28 207.73 252.29 205.22 253.00 202.00
C 253.00 201.00 253.00 200.00 253.00 199.00
C 252.96 189.90 258.86 180.52 253.02 171.98 C 247.19 163.43 250.29 149.87 250.78 141.78 C 251.27 133.69 259.77 120.73 268.00 124.00 C 276.23 127.27 256.91 135.64 258.02 144.02 C 259.14 152.41 256.25 165.79 262.00 174.00
C 268.79 165.71 276.77 154.93 281.31 145.31 C 285.84 135.68 286.52 135.59 286.93 126.93 C 287.34 118.26 288.10 109.30 292.97 117.03 C 297.85 124.75 293.54 129.96 293.07 137.07 C 292.61 144.19 289.82 149.75 286.00 155.00
M 236.00 134.00 
C 236.59 136.03 236.51 136.89 236.00 139.00
C 233.53 149.26 218.19 148.74 217.07 137.93 C 215.96 127.12 232.82 123.13 236.00 134.00
M 310.00 145.00 
C 317.35 147.30 312.92 159.01 305.00 156.00 C 297.08 152.99 302.29 142.59 310.00 145.00
M 352.00 161.00 
C 351.60 161.20 351.00 161.00 351.00 161.00
C 345.04 168.78 331.84 153.41 341.75 146.75 C 351.67 140.10 362.48 155.87 352.00 161.00
M 202.00 155.00 
C 202.94 157.62 203.10 161.50 199.00 162.00
C 198.51 162.06 198.00 162.00 198.00 162.00
C 191.46 167.14 185.83 153.59 195.00 151.00
C 198.66 149.97 200.68 151.33 202.00 155.00
M 326.00 170.00 
C 338.51 172.65 332.66 194.32 320.33 190.67 C 307.99 187.01 312.64 167.17 326.00 170.00
M 298.00 190.00 
C 298.64 194.85 297.50 195.94 294.00 198.00
C 286.48 202.42 276.95 195.81 281.31 187.31 C 285.66 178.80 296.99 182.34 298.00 190.00
M 210.00 189.00 
C 210.71 190.51 210.66 190.44 210.00 192.00
C 207.94 196.91 199.29 199.66 198.08 192.92 C 196.87 186.19 207.16 182.94 210.00 189.00
M 370.00 190.00 
C 380.01 193.47 373.22 211.46 362.78 206.22 C 352.34 200.99 358.94 186.17 370.00 190.00
M 184.00 215.00 
C 183.60 215.20 183.00 215.00 183.00 215.00
C 176.70 223.23 163.30 206.63 173.30 200.30 C 183.29 193.97 195.09 209.57 184.00 215.00
M 204.00 244.00 
C 216.55 246.27 212.67 266.49 200.00 264.00 C 187.33 261.51 191.68 241.77 204.00 244.00
M 351.00 250.00 
C 357.57 250.87 356.59 260.77 349.00 260.00 C 341.40 259.22 344.27 249.11 351.00 250.00
M 236.00 310.00 
C 255.61 319.91 229.20 343.42 219.00 350.00
C 213.49 353.55 210.13 355.53 208.00 362.00
C 206.77 365.75 206.43 371.00 204.00 374.00
C 203.92 374.49 204.00 375.00 204.00 375.00
C 207.89 381.09 214.83 383.85 220.00 388.00
C 220.47 388.11 221.00 388.00 221.00 388.00
C 229.77 388.00 241.24 385.51 243.77 375.77 C 246.30 366.03 249.08 359.23 255.70 352.70 C 262.32 346.17 271.60 342.29 281.00 345.00
C 301.11 351.29 282.40 370.14 272.00 375.00
C 267.03 377.33 262.00 378.20 257.00 380.00
C 256.23 380.39 255.36 381.59 254.00 381.00
C 260.92 399.20 284.83 386.26 294.00 376.00
C 298.13 372.47 301.11 368.48 304.00 364.00
C 309.17 355.99 308.81 356.00 315.25 348.25 C 321.69 340.50 327.23 355.63 327.00 360.00
C 329.15 351.07 351.75 332.98 357.00 347.00
C 359.21 352.89 354.53 356.41 351.00 350.00
C 341.61 355.03 331.12 362.44 331.00 375.00 C 330.89 387.56 349.42 392.54 358.00 383.00
C 359.45 381.45 361.63 380.38 363.00 379.00
C 365.25 376.73 366.96 372.77 371.00 374.00
C 370.05 385.25 358.91 393.64 349.00 397.00
C 348.54 397.13 347.50 397.00 347.00 397.00
C 336.59 401.43 325.46 394.29 321.00 385.00
C 316.50 388.66 312.36 393.51 307.00 396.00
C 306.56 396.16 306.00 396.00 306.00 396.00
C 304.31 398.70 297.74 401.28 295.00 399.00
C 291.16 395.29 305.51 389.49 308.75 385.75 C 311.99 382.01 320.34 371.11 314.00 365.00
C 312.06 366.55 311.84 370.13 309.00 371.00
C 308.06 372.55 307.25 374.42 306.00 376.00
C 301.24 382.03 294.14 389.42 287.00 392.00
C 286.56 392.16 286.00 392.00 286.00 392.00
C 283.84 395.46 276.95 397.85 273.00 398.00
C 272.50 398.02 272.00 398.00 272.00 398.00
C 265.09 403.11 247.11 397.67 244.00 390.00
C 238.71 390.15 235.60 396.37 230.00 396.00
C 229.50 396.01 229.00 396.00 229.00 396.00
C 221.04 401.89 203.65 391.21 199.00 384.00
C 195.30 386.22 193.18 390.69 189.00 392.00
C 188.56 392.16 188.00 392.00 188.00 392.00
C 181.48 400.52 164.60 388.80 169.78 379.78 C 174.96 370.76 184.68 367.36 195.00 370.00
C 200.17 357.93 203.88 343.46 208.31 331.31 C 212.73 319.15 220.90 303.42 236.00 310.00 Z"/>
</g>
<g fill="None" fill-opacity="0.0" stroke="#FBE2D6" stroke-opacity="0.25" stroke-width="0.3"><path d="
M 274.00 99.00 
C 274.02 100.68 274.61 100.90 275.00 102.00
C 273.73 92.37 287.15 87.97 290.00 97.00
C 286.44 88.26 275.62 90.15 274.00 99.00 Z"/>
</g>
<g fill="None" fill-opacity="0.0" stroke="#F46021" stroke-opacity="0.96" stroke-width="0.3"><path d="
M 275.00 102.00 
C 278.57 112.13 293.55 108.26 290.00 97.00
C 287.15 87.97 273.73 92.37 275.00 102.00 Z"/>
</g>
<g fill="None" fill-opacity="0.0" stroke="#FBEDE5" stroke-opacity="0.09" stroke-width="0.3"><path d="
M 275.00 102.00 
C 274.61 100.90 274.02 100.68 274.00 99.00
C 271.35 113.51 295.72 111.05 290.00 97.00
C 293.55 108.26 278.57 112.13 275.00 102.00 Z"/>
</g>
<g fill="None" fill-opacity="0.0" stroke="#FBE6DB" stroke-opacity="0.21" stroke-width="0.3"><path d="
M 253.00 103.00 
C 246.41 100.33 242.34 108.82 248.33 111.67 C 254.31 114.52 258.52 105.24 253.00 103.00
M 253.00 104.00 
C 256.64 105.63 253.43 113.41 249.00 111.00 C 244.56 108.58 247.91 101.72 253.00 104.00 Z"/>
</g>
<g fill="None" fill-opacity="0.0" stroke="#F46027" stroke-opacity="0.94" stroke-width="0.3"><path d="
M 253.00 104.00 
C 247.91 101.72 244.56 108.58 249.00 111.00 C 253.43 113.41 256.64 105.63 253.00 104.00 Z"/>
</g>
<g fill="None" fill-opacity="0.0" stroke="#FBEDE5" stroke-opacity="0.15" stroke-width="0.3"><path d="
M 331.00 124.00 
C 324.89 128.27 312.68 130.69 315.00 119.00 C 317.32 107.31 332.00 113.72 331.00 123.00
C 338.17 113.79 315.99 106.46 314.00 118.00 C 312.01 129.54 326.18 133.85 331.00 124.00 Z"/>
</g>
<g fill="None" fill-opacity="0.0" stroke="#FBE6DB" stroke-opacity="0.20" stroke-width="0.3"><path d="
M 253.00 199.00 
C 253.27 198.75 254.00 199.00 254.00 199.00
C 254.56 190.70 258.94 184.58 255.22 176.78 C 251.51 168.98 250.77 160.66 251.00 152.00 C 251.23 143.34 251.01 135.56 257.75 128.75 C 264.49 121.95 272.66 126.36 263.75 131.75 C 254.84 137.14 257.01 145.07 256.00 153.00 C 254.99 160.93 260.25 169.58 262.00 177.00
C 266.70 171.23 269.27 165.32 274.25 159.25 C 279.24 153.19 281.65 146.15 284.98 138.98 C 288.30 131.80 285.91 118.88 291.00 114.00
C 296.82 127.42 291.72 142.40 286.00 155.00
C 289.82 149.75 292.61 144.19 293.07 137.07 C 293.54 129.96 297.85 124.75 292.97 117.03 C 288.10 109.30 287.34 118.26 286.93 126.93 C 286.52 135.59 285.84 135.68 281.31 145.31 C 276.77 154.93 268.79 165.71 262.00 174.00
C 256.25 165.79 259.14 152.41 258.02 144.02 C 256.91 135.64 276.23 127.27 268.00 124.00 C 259.77 120.73 251.27 133.69 250.78 141.78 C 250.29 149.87 247.19 163.43 253.02 171.98 C 258.86 180.52 252.96 189.90 253.00 199.00 Z"/>
</g>
<g fill="None" fill-opacity="0.0" stroke="#F45F1F" stroke-opacity="0.96" stroke-width="0.3"><path d="
M 331.00 124.00 
C 331.00 124.00 330.95 123.49 331.00 123.00
C 332.00 113.72 317.32 107.31 315.00 119.00 C 312.68 130.69 324.89 128.27 331.00 124.00 Z"/>
</g>
<g fill="None" fill-opacity="0.0" stroke="#F45F1F" stroke-opacity="0.96" stroke-width="0.3"><path d="
M 254.00 199.00 
C 253.66 203.97 254.20 209.02 254.00 214.00
C 253.92 215.89 254.77 218.92 253.00 220.00
C 246.50 212.04 242.22 202.63 243.00 192.00
C 243.00 191.50 242.97 190.50 243.00 190.00
C 240.78 182.65 240.29 176.68 236.74 169.26 C 233.20 161.83 218.17 165.05 226.03 168.97 C 233.89 172.89 234.16 180.21 234.78 188.22 C 235.40 196.23 236.79 203.67 239.32 210.68 C 241.86 217.68 244.83 223.05 249.25 228.75 C 253.67 234.45 257.64 237.50 261.25 243.75 C 264.87 249.99 267.72 258.30 267.00 266.00
C 250.98 255.38 225.42 248.80 223.00 226.00
C 223.00 226.00 223.01 225.50 223.00 225.00
C 220.34 220.14 217.67 210.05 209.00 212.00 C 200.32 213.95 202.24 224.31 208.00 228.00
C 208.00 228.00 208.50 228.05 209.00 228.00
C 221.71 226.80 221.00 242.19 226.75 250.25 C 232.51 258.30 246.13 259.21 251.00 267.00
C 251.00 267.00 251.56 266.84 252.00 267.00
C 260.26 269.98 264.16 277.24 266.78 285.22 C 269.39 293.20 263.92 308.32 263.22 315.22 C 262.53 322.13 245.74 329.03 248.00 332.00
C 252.25 331.61 256.73 332.00 261.00 332.00
C 261.50 332.00 262.50 332.00 263.00 332.00
C 264.22 331.63 265.25 331.10 267.00 331.00
C 272.86 329.96 280.19 329.56 286.00 331.00
C 287.70 331.15 287.85 330.93 289.00 332.00
C 289.00 332.00 289.50 332.05 290.00 332.00
C 294.20 331.60 296.70 332.97 300.00 334.00
C 302.98 334.52 306.01 336.08 309.00 334.00
C 312.77 330.23 301.45 326.33 300.00 324.00
C 300.00 324.00 299.40 324.20 299.00 324.00
C 276.55 313.02 286.87 284.02 298.00 270.00
C 298.78 268.78 299.33 267.08 300.00 266.00
C 306.41 255.64 320.50 243.91 331.00 239.00
C 336.01 236.66 341.67 234.55 347.00 233.00
C 350.75 231.91 355.58 231.74 360.00 232.00
C 357.50 218.21 338.71 227.45 331.00 232.00
C 335.25 220.97 341.52 208.02 336.00 196.00
C 329.21 206.65 329.46 224.26 320.08 234.08 C 310.71 243.90 302.24 252.63 291.00 259.00
C 289.80 246.70 289.70 232.61 298.00 223.00
C 298.00 223.00 297.80 222.40 298.00 222.00
C 299.58 218.76 303.84 215.26 307.00 214.00
C 308.02 213.59 308.95 213.49 310.00 213.00
C 311.26 212.20 312.07 210.08 314.00 210.00
C 309.97 204.30 300.22 210.86 295.75 216.75 C 291.28 222.64 287.74 230.21 286.07 238.07 C 284.40 245.93 284.91 257.92 283.00 266.00
C 279.05 260.91 279.99 252.70 276.00 247.00
C 268.52 227.94 258.85 208.53 269.00 188.00
C 270.96 184.03 272.29 179.96 274.00 176.00
C 275.84 171.75 278.32 168.46 281.00 165.00
C 283.06 161.68 284.60 158.56 286.00 155.00
C 291.72 142.40 296.82 127.42 291.00 114.00
C 285.91 118.88 288.30 131.80 284.98 138.98 C 281.65 146.15 279.24 153.19 274.25 159.25 C 269.27 165.32 266.70 171.23 262.00 177.00
C 260.25 169.58 254.99 160.93 256.00 153.00 C 257.01 145.07 254.84 137.14 263.75 131.75 C 272.66 126.36 264.49 121.95 257.75 128.75 C 251.01 135.56 251.23 143.34 251.00 152.00 C 250.77 160.66 251.51 168.98 255.22 176.78 C 258.94 184.58 254.56 190.70 254.00 199.00 Z"/>
</g>
<g fill="None" fill-opacity="0.0" stroke="#FCE0D4" stroke-opacity="0.21" stroke-width="0.3"><path d="
M 236.00 139.00 
C 233.04 147.95 219.16 146.85 219.00 137.00 C 218.85 127.14 232.62 125.53 236.00 134.00
C 232.82 123.13 215.96 127.12 217.07 137.93 C 218.19 148.74 233.53 149.26 236.00 139.00 Z"/>
</g>
<g fill="None" fill-opacity="0.0" stroke="#F45F20" stroke-opacity="0.96" stroke-width="0.3"><path d="
M 236.00 139.00 
C 236.51 136.89 236.59 136.03 236.00 134.00
C 232.62 125.53 218.85 127.14 219.00 137.00 C 219.16 146.85 233.04 147.95 236.00 139.00 Z"/>
</g>
<g fill="None" fill-opacity="0.0" stroke="#FAEFE7" stroke-opacity="0.15" stroke-width="0.3"><path d="
M 310.00 145.00 
C 302.29 142.59 297.08 152.99 305.00 156.00 C 312.92 159.01 317.35 147.30 310.00 145.00
M 310.00 146.00 
C 316.36 148.38 311.25 158.31 305.00 155.00 C 298.75 151.69 303.77 143.66 310.00 146.00 Z"/>
</g>
<g fill="None" fill-opacity="0.0" stroke="#FBEDE3" stroke-opacity="0.14" stroke-width="0.3"><path d="
M 351.00 161.00 
C 343.18 164.40 333.52 153.12 342.25 147.25 C 350.97 141.38 359.50 153.96 352.00 161.00
C 362.48 155.87 351.67 140.10 341.75 146.75 C 331.84 153.41 345.04 168.78 351.00 161.00 Z"/>
</g>
<g fill="None" fill-opacity="0.0" stroke="#F45C1E" stroke-opacity="0.95" stroke-width="0.3"><path d="
M 310.00 146.00 
C 303.77 143.66 298.75 151.69 305.00 155.00 C 311.25 158.31 316.36 148.38 310.00 146.00 Z"/>
</g>
<g fill="None" fill-opacity="0.0" stroke="#F46224" stroke-opacity="0.95" stroke-width="0.3"><path d="
M 351.00 161.00 
C 351.00 161.00 351.60 161.20 352.00 161.00
C 359.50 153.96 350.97 141.38 342.25 147.25 C 333.52 153.12 343.18 164.40 351.00 161.00 Z"/>
</g>
<g fill="None" fill-opacity="0.0" stroke="#F66A35" stroke-opacity="0.89" stroke-width="0.3"><path d="
M 195.00 151.00 
C 188.39 153.60 190.21 163.17 198.00 162.00
C 198.00 162.00 198.51 162.06 199.00 162.00
C 200.99 160.13 202.41 157.84 202.00 155.00
C 200.68 151.33 198.66 149.97 195.00 151.00 Z"/>
</g>
<g fill="None" fill-opacity="0.0" stroke="#F9E5DB" stroke-opacity="0.16" stroke-width="0.3"><path d="
M 198.00 162.00 
C 190.21 163.17 188.39 153.60 195.00 151.00
C 185.83 153.59 191.46 167.14 198.00 162.00 Z"/>
</g>
<g fill="None" fill-opacity="0.0" stroke="#F9D9CA" stroke-opacity="0.17" stroke-width="0.3"><path d="
M 199.00 162.00 
C 203.10 161.50 202.94 157.62 202.00 155.00
C 202.41 157.84 200.99 160.13 199.00 162.00 Z"/>
</g>
<g fill="None" fill-opacity="0.0" stroke="#FAE7DC" stroke-opacity="0.19" stroke-width="0.3"><path d="
M 223.00 226.00 
C 225.42 248.80 250.98 255.38 267.00 266.00
C 267.72 258.30 264.87 249.99 261.25 243.75 C 257.64 237.50 253.67 234.45 249.25 228.75 C 244.83 223.05 241.86 217.68 239.32 210.68 C 236.79 203.67 235.40 196.23 234.78 188.22 C 234.16 180.21 233.89 172.89 226.03 168.97 C 218.17 165.05 233.20 161.83 236.74 169.26 C 240.29 176.68 240.78 182.65 243.00 190.00
C 244.19 180.82 239.67 176.17 236.90 168.10 C 234.13 160.03 216.24 164.89 223.78 169.22 C 231.32 173.55 233.24 177.98 233.07 186.93 C 232.91 195.87 236.27 202.32 238.07 209.93 C 239.87 217.53 243.13 221.87 247.25 227.75 C 251.37 233.64 256.26 237.08 259.75 243.25 C 263.23 249.43 266.24 256.59 266.00 264.00
C 255.89 260.48 250.04 253.09 239.70 249.30 C 229.36 245.51 228.53 232.81 223.00 226.00 Z"/>
</g>
<g fill="None" fill-opacity="0.0" stroke="#FCD4C6" stroke-opacity="0.11" stroke-width="0.3"><path d="
M 274.00 176.00 
C 275.87 172.57 278.78 168.58 281.00 165.00
C 278.32 168.46 275.84 171.75 274.00 176.00 Z"/>
</g>
<g fill="None" fill-opacity="0.0" stroke="#FAEBE3" stroke-opacity="0.16" stroke-width="0.3"><path d="
M 326.00 170.00 
C 312.64 167.17 307.99 187.01 320.33 190.67 C 332.66 194.32 338.51 172.65 326.00 170.00
M 326.00 171.00 
C 337.09 173.98 331.52 193.29 320.33 189.67 C 309.14 186.04 314.27 167.85 326.00 171.00 Z"/>
</g>
<g fill="None" fill-opacity="0.0" stroke="#F45F1E" stroke-opacity="0.96" stroke-width="0.3"><path d="
M 326.00 171.00 
C 314.27 167.85 309.14 186.04 320.33 189.67 C 331.52 193.29 337.09 173.98 326.00 171.00 Z"/>
</g>
<g fill="None" fill-opacity="0.0" stroke="#FCE8DF" stroke-opacity="0.16" stroke-width="0.3"><path d="
M 294.00 198.00 
C 286.58 200.98 279.17 195.71 282.31 188.31 C 285.44 180.90 296.67 183.22 298.00 190.00
C 296.99 182.34 285.66 178.80 281.31 187.31 C 276.95 195.81 286.48 202.42 294.00 198.00 Z"/>
</g>
<g fill="None" fill-opacity="0.0" stroke="#F5652B" stroke-opacity="0.93" stroke-width="0.3"><path d="
M 294.00 198.00 
C 297.50 195.94 298.64 194.85 298.00 190.00
C 296.67 183.22 285.44 180.90 282.31 188.31 C 279.17 195.71 286.58 200.98 294.00 198.00 Z"/>
</g>
<g fill="None" fill-opacity="0.0" stroke="#FAE3D7" stroke-opacity="0.17" stroke-width="0.3"><path d="
M 210.00 192.00 
C 208.04 195.43 199.94 198.47 199.08 192.92 C 198.21 187.38 207.03 184.62 210.00 189.00
C 207.16 182.94 196.87 186.19 198.08 192.92 C 199.29 199.66 207.94 196.91 210.00 192.00 Z"/>
</g>
<g fill="None" fill-opacity="0.0" stroke="#F5652E" stroke-opacity="0.92" stroke-width="0.3"><path d="
M 210.00 192.00 
C 210.66 190.44 210.71 190.51 210.00 189.00
C 207.03 184.62 198.21 187.38 199.08 192.92 C 199.94 198.47 208.04 195.43 210.00 192.00 Z"/>
</g>
<g fill="None" fill-opacity="0.0" stroke="#FADCCD" stroke-opacity="0.14" stroke-width="0.3"><path d="
M 276.00 247.00 
C 276.06 247.16 277.00 247.00 277.00 247.00
C 269.36 227.54 260.98 209.74 269.00 188.00
C 258.85 208.53 268.52 227.94 276.00 247.00 Z"/>
</g>
<g fill="None" fill-opacity="0.0" stroke="#FBE2D5" stroke-opacity="0.16" stroke-width="0.3"><path d="
M 370.00 190.00 
C 358.94 186.17 352.34 200.99 362.78 206.22 C 373.22 211.46 380.01 193.47 370.00 190.00
M 370.00 191.00 
C 378.86 194.46 371.94 210.72 362.78 205.22 C 353.62 199.73 360.63 187.35 370.00 191.00 Z"/>
</g>
<g fill="None" fill-opacity="0.0" stroke="#F45F1E" stroke-opacity="0.96" stroke-width="0.3"><path d="
M 370.00 191.00 
C 360.63 187.35 353.62 199.73 362.78 205.22 C 371.94 210.72 378.86 194.46 370.00 191.00 Z"/>
</g>
<g fill="None" fill-opacity="0.0" stroke="#FBEDE4" stroke-opacity="0.14" stroke-width="0.3"><path d="
M 254.00 214.00 
C 254.00 214.04 253.00 214.00 253.00 214.00
C 253.00 215.00 253.00 216.00 253.00 217.00
C 244.12 211.65 246.27 199.70 243.00 192.00
C 242.22 202.63 246.50 212.04 253.00 220.00
C 254.77 218.92 253.92 215.89 254.00 214.00 Z"/>
</g>
<g fill="None" fill-opacity="0.0" stroke="#FAE7DD" stroke-opacity="0.20" stroke-width="0.3"><path d="
M 298.00 223.00 
C 289.70 232.61 289.80 246.70 291.00 259.00
C 302.24 252.63 310.71 243.90 320.08 234.08 C 329.46 224.26 329.21 206.65 336.00 196.00
C 341.52 208.02 335.25 220.97 331.00 232.00
C 338.71 227.45 357.50 218.21 360.00 232.00
C 355.58 231.74 350.75 231.91 347.00 233.00
C 351.67 233.00 356.33 233.00 361.00 233.00
C 360.64 218.23 340.47 224.47 333.00 230.00
C 335.87 224.11 336.97 217.08 339.00 211.00 C 341.03 204.92 336.74 191.01 332.93 197.93 C 329.12 204.84 330.37 211.07 327.32 217.32 C 324.27 223.57 323.35 228.99 318.75 233.75 C 314.15 238.51 310.67 241.78 306.25 246.25 C 301.83 250.71 297.13 253.61 293.00 258.00
C 287.95 246.39 293.69 233.97 298.00 223.00 Z"/>
</g>
<g fill="None" fill-opacity="0.0" stroke="#FAEAE3" stroke-opacity="0.15" stroke-width="0.3"><path d="
M 183.00 215.00 
C 174.33 218.08 165.32 207.56 174.25 201.25 C 183.17 194.93 191.41 208.05 184.00 215.00
C 195.09 209.57 183.29 193.97 173.30 200.30 C 163.30 206.63 176.70 223.23 183.00 215.00 Z"/>
</g>
<g fill="None" fill-opacity="0.0" stroke="#F8C7B5" stroke-opacity="0.51" stroke-width="0.3"><path d="
M 253.00 202.00 
C 253.00 205.00 253.00 208.00 253.00 211.00
C 253.00 211.39 252.74 213.76 253.00 214.00
C 253.00 214.00 254.00 214.04 254.00 214.00
C 254.20 209.02 253.66 203.97 254.00 199.00
C 254.00 199.00 253.27 198.75 253.00 199.00
C 253.00 200.00 253.00 201.00 253.00 202.00 Z"/>
</g>
<g fill="None" fill-opacity="0.0" stroke="#F45D1C" stroke-opacity="0.96" stroke-width="0.3"><path d="
M 183.00 215.00 
C 183.00 215.00 183.60 215.20 184.00 215.00
C 191.41 208.05 183.17 194.93 174.25 201.25 C 165.32 207.56 174.33 218.08 183.00 215.00 Z"/>
</g>
<g fill="None" fill-opacity="0.0" stroke="#FFFFFF" stroke-opacity="0.01" stroke-width="0.3"><path d="
M 253.00 211.00 
C 253.00 208.00 253.00 205.00 253.00 202.00
C 252.29 205.22 252.28 207.73 253.00 211.00 Z"/>
</g>
<g fill="None" fill-opacity="0.0" stroke="#FADFD3" stroke-opacity="0.24" stroke-width="0.3"><path d="
M 277.00 247.00 
C 277.00 247.00 276.06 247.16 276.00 247.00
C 279.99 252.70 279.05 260.91 283.00 266.00
C 284.91 257.92 284.40 245.93 286.07 238.07 C 287.74 230.21 291.28 222.64 295.75 216.75 C 300.22 210.86 309.97 204.30 314.00 210.00
C 312.07 210.08 311.26 212.20 310.00 213.00
C 321.63 203.89 304.20 205.97 298.70 212.70 C 293.19 219.42 288.00 224.75 285.98 233.98 C 283.95 243.20 283.74 254.90 282.00 264.00
C 282.17 257.80 279.16 252.51 277.00 247.00 Z"/>
</g>
<g fill="None" fill-opacity="0.0" stroke="#FAE8DE" stroke-opacity="0.17" stroke-width="0.3"><path d="
M 208.00 228.00 
C 202.24 224.31 200.32 213.95 209.00 212.00 C 217.67 210.05 220.34 220.14 223.00 225.00
C 222.83 217.61 216.35 209.95 208.22 211.22 C 200.10 212.50 199.53 226.35 208.00 228.00 Z"/>
</g>
<g fill="None" fill-opacity="0.0" stroke="#F9E2D7" stroke-opacity="0.18" stroke-width="0.3"><path d="
M 298.00 222.00 
C 301.11 219.83 303.87 215.74 307.00 214.00
C 303.84 215.26 299.58 218.76 298.00 222.00 Z"/>
</g>
<g fill="None" fill-opacity="0.0" stroke="#F9E6DB" stroke-opacity="0.20" stroke-width="0.3"><path d="
M 251.00 267.00 
C 246.13 259.21 232.51 258.30 226.75 250.25 C 221.00 242.19 221.71 226.80 209.00 228.00
C 210.38 230.14 213.81 228.48 216.00 229.00
C 220.00 247.49 233.68 260.20 251.00 267.00 Z"/>
</g>
<g fill="None" fill-opacity="0.0" stroke="#FAE0D3" stroke-opacity="0.10" stroke-width="0.3"><path d="
M 300.00 266.00 
C 307.26 256.13 320.99 244.95 331.00 239.00
C 320.50 243.91 306.41 255.64 300.00 266.00 Z"/>
</g>
<g fill="None" fill-opacity="0.0" stroke="#FBE5DA" stroke-opacity="0.16" stroke-width="0.3"><path d="
M 204.00 244.00 
C 191.68 241.77 187.33 261.51 200.00 264.00 C 212.67 266.49 216.55 246.27 204.00 244.00
M 204.00 245.00 
C 215.44 246.91 211.25 265.79 200.00 263.00 C 188.75 260.21 193.05 243.17 204.00 245.00 Z"/>
</g>
<g fill="None" fill-opacity="0.0" stroke="#F46020" stroke-opacity="0.96" stroke-width="0.3"><path d="
M 204.00 245.00 
C 193.05 243.17 188.75 260.21 200.00 263.00 C 211.25 265.79 215.44 246.91 204.00 245.00 Z"/>
</g>
<g fill="None" fill-opacity="0.0" stroke="#FADED0" stroke-opacity="0.21" stroke-width="0.3"><path d="
M 351.00 250.00 
C 344.27 249.11 341.40 259.22 349.00 260.00 C 356.59 260.77 357.57 250.87 351.00 250.00
M 353.00 252.00 
C 357.43 254.99 351.28 262.02 346.78 258.22 C 342.28 254.42 349.33 249.52 353.00 252.00 Z"/>
</g>
<g fill="None" fill-opacity="0.0" stroke="#F56024" stroke-opacity="0.95" stroke-width="0.3"><path d="
M 353.00 252.00 
C 349.33 249.52 342.28 254.42 346.78 258.22 C 351.28 262.02 357.43 254.99 353.00 252.00 Z"/>
</g>
<g fill="None" fill-opacity="0.0" stroke="#FAE4D8" stroke-opacity="0.23" stroke-width="0.3"><path d="
M 248.00 333.00 
C 247.96 333.00 248.00 332.00 248.00 332.00
C 245.74 329.03 262.53 322.13 263.22 315.22 C 263.92 308.32 269.39 293.20 266.78 285.22 C 264.16 277.24 260.26 269.98 252.00 267.00
C 256.35 271.54 261.76 274.38 264.22 280.78 C 266.68 287.18 265.30 296.92 265.00 303.00 C 264.70 309.08 261.25 318.49 257.75 321.75 C 254.25 325.02 242.71 331.79 248.00 333.00 Z"/>
</g>
<g fill="None" fill-opacity="0.0" stroke="#FCE7DD" stroke-opacity="0.11" stroke-width="0.3"><path d="
M 299.00 324.00 
C 292.83 315.17 284.39 309.19 287.00 297.00 C 289.62 284.81 291.57 280.14 298.00 270.00
C 286.87 284.02 276.55 313.02 299.00 324.00 Z"/>
</g>
<g fill="None" fill-opacity="0.0" stroke="#F9E7DE" stroke-opacity="0.22" stroke-width="0.3"><path d="
M 188.00 392.00 
C 178.87 395.23 165.87 389.18 170.93 378.93 C 175.98 368.67 187.52 370.42 196.00 371.00
C 201.10 359.06 205.01 344.27 209.31 332.31 C 213.60 320.34 221.08 304.54 236.00 311.00
C 235.85 310.95 236.00 310.00 236.00 310.00
C 220.90 303.42 212.73 319.15 208.31 331.31 C 203.88 343.46 200.17 357.93 195.00 370.00
C 184.68 367.36 174.96 370.76 169.78 379.78 C 164.60 388.80 181.48 400.52 188.00 392.00 Z"/>
</g>
<g fill="None" fill-opacity="0.0" stroke="#F46021" stroke-opacity="0.95" stroke-width="0.3"><path d="
M 188.00 392.00 
C 188.00 392.00 188.56 392.16 189.00 392.00
C 191.76 389.11 195.79 386.63 198.00 383.00
C 206.09 391.94 216.93 396.70 229.00 396.00
C 229.00 396.00 229.50 396.01 230.00 396.00
C 236.28 392.71 242.08 386.55 247.75 393.25 C 253.42 399.95 264.20 397.99 272.00 398.00
C 272.00 398.00 272.50 398.02 273.00 398.00
C 275.90 395.65 282.20 393.49 286.00 392.00
C 286.00 392.00 286.56 392.16 287.00 392.00
C 292.48 386.28 300.33 382.13 306.00 376.00
C 307.25 374.42 308.06 372.55 309.00 371.00
C 310.56 368.42 312.65 366.08 313.00 363.00
C 325.80 376.53 304.05 390.37 295.00 398.00
C 299.22 397.61 302.33 398.31 306.00 396.00
C 306.00 396.00 306.56 396.16 307.00 396.00
C 311.17 391.65 317.11 387.37 322.00 384.00
C 325.85 394.15 336.36 398.98 347.00 397.00
C 347.50 397.00 348.54 397.13 349.00 397.00
C 352.12 394.83 359.24 390.65 362.25 388.25 C 365.26 385.84 372.87 375.55 368.00 375.00
C 365.48 378.88 361.68 381.60 358.00 384.00
C 349.13 393.90 329.78 388.03 330.01 374.99 C 330.24 361.95 341.08 353.67 351.00 349.00
C 352.92 354.41 358.84 352.91 357.00 347.00
C 355.17 341.37 342.64 343.38 339.25 347.25 C 335.87 351.13 330.08 356.01 327.00 360.00
C 325.99 361.31 325.97 363.59 324.00 364.00
C 326.14 358.78 323.59 343.35 316.98 347.98 C 310.36 352.60 311.63 357.72 306.00 363.00
C 301.45 370.05 295.74 376.68 289.00 382.00
C 282.84 386.86 275.22 389.43 268.00 391.00 C 260.77 392.56 248.03 383.23 257.00 380.00
C 262.00 378.20 267.03 377.33 272.00 375.00
C 283.19 368.43 296.94 355.16 281.00 346.00
C 272.32 345.35 261.91 346.58 255.75 353.75 C 249.60 360.93 246.81 369.10 244.22 377.22 C 241.64 385.35 228.24 393.34 221.00 388.00
C 221.00 388.00 220.47 388.11 220.00 388.00
C 214.92 386.81 205.11 380.67 204.00 375.00
C 204.00 375.00 203.92 374.49 204.00 374.00
C 204.74 369.52 206.28 365.84 208.00 362.00
C 210.13 355.53 213.49 353.55 219.00 350.00
C 224.79 345.29 231.69 339.15 236.30 333.30 C 240.91 327.46 245.97 314.21 236.00 311.00
C 221.08 304.54 213.60 320.34 209.31 332.31 C 205.01 344.27 201.10 359.06 196.00 371.00
C 187.52 370.42 175.98 368.67 170.93 378.93 C 165.87 389.18 178.87 395.23 188.00 392.00
M 213.00 347.00 
C 215.23 335.92 215.43 332.27 221.77 321.77 C 228.11 311.27 236.21 320.84 229.23 329.23 C 222.25 337.61 221.34 340.66 213.00 347.00
M 254.00 374.00 
C 255.81 364.33 258.71 361.81 266.25 354.25 C 273.79 346.68 283.62 355.79 275.25 363.25 C 266.88 370.70 264.68 373.21 254.00 374.00
M 179.00 381.00 
C 179.02 380.50 179.00 380.00 179.00 380.00
C 181.36 374.80 188.00 375.58 192.00 378.00
C 191.01 385.28 177.08 390.70 179.00 381.00 Z"/>
</g>
<g fill="None" fill-opacity="0.0" stroke="#FBE9E0" stroke-opacity="0.11" stroke-width="0.3"><path d="
M 236.00 311.00 
C 245.97 314.21 240.91 327.46 236.30 333.30 C 231.69 339.15 224.79 345.29 219.00 350.00
C 229.20 343.42 255.61 319.91 236.00 310.00
C 236.00 310.00 235.85 310.95 236.00 311.00 Z"/>
</g>
<g fill="None" fill-opacity="0.0" stroke="#FBE5DA" stroke-opacity="0.20" stroke-width="0.3"><path d="
M 213.00 347.00 
C 221.34 340.66 222.25 337.61 229.23 329.23 C 236.21 320.84 228.11 311.27 221.77 321.77 C 215.43 332.27 215.23 335.92 213.00 347.00
M 215.00 343.00 
C 216.66 333.49 217.39 331.54 222.31 322.31 C 227.22 313.07 235.26 320.60 229.08 328.08 C 222.89 335.56 222.15 337.56 215.00 343.00 Z"/>
</g>
<g fill="None" fill-opacity="0.0" stroke="#000000" stroke-opacity="0.00" stroke-width="0.3"><path d="
M 215.00 343.00 
C 222.15 337.56 222.89 335.56 229.08 328.08 C 235.26 320.60 227.22 313.07 222.31 322.31 C 217.39 331.54 216.66 333.49 215.00 343.00 Z"/>
</g>
<g fill="None" fill-opacity="0.0" stroke="#FBE8DD" stroke-opacity="0.16" stroke-width="0.3"><path d="
M 309.00 334.00 
C 314.57 330.13 303.46 325.36 300.00 324.00
C 301.45 326.33 312.77 330.23 309.00 334.00 Z"/>
</g>
<g fill="None" fill-opacity="0.0" stroke="#F45826" stroke-opacity="0.82" stroke-width="0.3"><path d="
M 267.00 331.00 
C 273.12 330.65 279.89 330.48 286.00 331.00
C 280.19 329.56 272.86 329.96 267.00 331.00 Z"/>
</g>
<g fill="None" fill-opacity="0.0" stroke="#F7CBBB" stroke-opacity="0.17" stroke-width="0.3"><path d="
M 263.00 332.00 
C 271.67 332.00 280.33 332.00 289.00 332.00
C 287.85 330.93 287.70 331.15 286.00 331.00
C 279.89 330.48 273.12 330.65 267.00 331.00
C 265.25 331.10 264.22 331.63 263.00 332.00 Z"/>
</g>
<g fill="None" fill-opacity="0.0" stroke="#FAC3A9" stroke-opacity="0.22" stroke-width="0.3"><path d="
M 248.00 333.00 
C 252.13 333.37 257.59 333.45 261.00 332.00
C 256.73 332.00 252.25 331.61 248.00 332.00
C 248.00 332.00 247.96 333.00 248.00 333.00 Z"/>
</g>
<g fill="None" fill-opacity="0.0" stroke="#FBD3C1" stroke-opacity="0.17" stroke-width="0.3"><path d="
M 300.00 334.00 
C 296.70 332.97 294.20 331.60 290.00 332.00
C 292.86 333.35 296.60 333.40 300.00 334.00 Z"/>
</g>
<g fill="None" fill-opacity="0.0" stroke="#FADFD1" stroke-opacity="0.27" stroke-width="0.3"><path d="
M 327.00 360.00 
C 330.08 356.01 335.87 351.13 339.25 347.25 C 342.64 343.38 355.17 341.37 357.00 347.00
C 351.75 332.98 329.15 351.07 327.00 360.00 Z"/>
</g>
<g fill="None" fill-opacity="0.0" stroke="#F9EBE1" stroke-opacity="0.24" stroke-width="0.3"><path d="
M 221.00 388.00 
C 228.24 393.34 241.64 385.35 244.22 377.22 C 246.81 369.10 249.60 360.93 255.75 353.75 C 261.91 346.58 272.32 345.35 281.00 346.00
C 280.78 345.88 281.00 345.00 281.00 345.00
C 271.60 342.29 262.32 346.17 255.70 352.70 C 249.08 359.23 246.30 366.03 243.77 375.77 C 241.24 385.51 229.77 388.00 221.00 388.00 Z"/>
</g>
<g fill="None" fill-opacity="0.0" stroke="#FAE9DF" stroke-opacity="0.12" stroke-width="0.3"><path d="
M 281.00 346.00 
C 296.94 355.16 283.19 368.43 272.00 375.00
C 282.40 370.14 301.11 351.29 281.00 345.00
C 281.00 345.00 280.78 345.88 281.00 346.00 Z"/>
</g>
<g fill="None" fill-opacity="0.0" stroke="#F9EBE0" stroke-opacity="0.17" stroke-width="0.3"><path d="
M 304.00 364.00 
C 304.50 363.54 305.56 363.40 306.00 363.00
C 311.63 357.72 310.36 352.60 316.98 347.98 C 323.59 343.35 326.14 358.78 324.00 364.00
C 325.97 363.59 325.99 361.31 327.00 360.00
C 327.23 355.63 321.69 340.50 315.25 348.25 C 308.81 356.00 309.17 355.99 304.00 364.00 Z"/>
</g>
<g fill="None" fill-opacity="0.0" stroke="#FBE6DB" stroke-opacity="0.16" stroke-width="0.3"><path d="
M 358.00 384.00 
C 358.25 383.72 358.00 383.00 358.00 383.00
C 349.42 392.54 330.89 387.56 331.00 375.00 C 331.12 362.44 341.61 355.03 351.00 350.00
C 354.53 356.41 359.21 352.89 357.00 347.00
C 358.84 352.91 352.92 354.41 351.00 349.00
C 341.08 353.67 330.24 361.95 330.01 374.99 C 329.78 388.03 349.13 393.90 358.00 384.00 Z"/>
</g>
<g fill="None" fill-opacity="0.0" stroke="#FAE7DE" stroke-opacity="0.19" stroke-width="0.3"><path d="
M 254.00 374.00 
C 264.68 373.21 266.88 370.70 275.25 363.25 C 283.62 355.79 273.79 346.68 266.25 354.25 C 258.71 361.81 255.81 364.33 254.00 374.00
M 255.00 373.00 
C 257.18 364.25 259.47 362.37 266.25 355.25 C 273.03 348.13 282.31 355.81 274.75 362.75 C 267.19 369.68 264.34 371.35 255.00 373.00 Z"/>
</g>
<g fill="None" fill-opacity="0.0" stroke="#000000" stroke-opacity="0.00" stroke-width="0.3"><path d="
M 255.00 373.00 
C 264.34 371.35 267.19 369.68 274.75 362.75 C 282.31 355.81 273.03 348.13 266.25 355.25 C 259.47 362.37 257.18 364.25 255.00 373.00 Z"/>
</g>
<g fill="None" fill-opacity="0.0" stroke="#FBD6C7" stroke-opacity="0.15" stroke-width="0.3"><path d="
M 204.00 374.00 
C 206.43 371.00 206.77 365.75 208.00 362.00
C 206.28 365.84 204.74 369.52 204.00 374.00 Z"/>
</g>
<g fill="None" fill-opacity="0.0" stroke="#F9D7C7" stroke-opacity="0.40" stroke-width="0.3"><path d="
M 304.00 364.00 
C 301.11 368.48 298.13 372.47 294.00 376.00
C 292.26 377.74 290.75 380.38 289.00 382.00
C 295.74 376.68 301.45 370.05 306.00 363.00
C 305.56 363.40 304.50 363.54 304.00 364.00 Z"/>
</g>
<g fill="None" fill-opacity="0.0" stroke="#FAF0E7" stroke-opacity="0.19" stroke-width="0.3"><path d="
M 309.00 371.00 
C 311.84 370.13 312.06 366.55 314.00 365.00
C 320.34 371.11 311.99 382.01 308.75 385.75 C 305.51 389.49 291.16 395.29 295.00 399.00
C 294.75 398.80 295.00 398.00 295.00 398.00
C 304.05 390.37 325.80 376.53 313.00 363.00
C 312.65 366.08 310.56 368.42 309.00 371.00 Z"/>
</g>
<g fill="None" fill-opacity="0.0" stroke="#FAEADF" stroke-opacity="0.12" stroke-width="0.3"><path d="
M 363.00 379.00 
C 363.83 378.29 366.97 374.88 368.00 375.00
C 372.87 375.55 365.26 385.84 362.25 388.25 C 359.24 390.65 352.12 394.83 349.00 397.00
C 358.91 393.64 370.05 385.25 371.00 374.00
C 366.96 372.77 365.25 376.73 363.00 379.00 Z"/>
</g>
<g fill="None" fill-opacity="0.0" stroke="#F7E5DD" stroke-opacity="0.17" stroke-width="0.3"><path d="
M 220.00 388.00 
C 214.83 383.85 207.89 381.09 204.00 375.00
C 205.11 380.67 214.92 386.81 220.00 388.00 Z"/>
</g>
<g fill="None" fill-opacity="0.0" stroke="#F8E1D7" stroke-opacity="0.32" stroke-width="0.3"><path d="
M 363.00 379.00 
C 361.63 380.38 359.45 381.45 358.00 383.00
C 358.00 383.00 358.25 383.72 358.00 384.00
C 361.68 381.60 365.48 378.88 368.00 375.00
C 366.97 374.88 363.83 378.29 363.00 379.00 Z"/>
</g>
<g fill="None" fill-opacity="0.0" stroke="#F8E4D8" stroke-opacity="0.22" stroke-width="0.3"><path d="
M 179.00 380.00 
C 182.38 377.05 191.19 375.51 189.22 381.22 C 187.25 386.94 178.70 387.06 179.00 381.00
C 177.08 390.70 191.01 385.28 192.00 378.00
C 188.00 375.58 181.36 374.80 179.00 380.00 Z"/>
</g>
<g fill="None" fill-opacity="0.0" stroke="#FAEBE2" stroke-opacity="0.18" stroke-width="0.3"><path d="
M 257.00 380.00 
C 248.03 383.23 260.77 392.56 268.00 391.00 C 275.22 389.43 282.84 386.86 289.00 382.00
C 290.75 380.38 292.26 377.74 294.00 376.00
C 284.83 386.26 260.92 399.20 254.00 381.00
C 255.36 381.59 256.23 380.39 257.00 380.00 Z"/>
</g>
<g fill="None" fill-opacity="0.0" stroke="#FAE7DE" stroke-opacity="0.12" stroke-width="0.3"><path d="
M 287.00 392.00 
C 294.14 389.42 301.24 382.03 306.00 376.00
C 300.33 382.13 292.48 386.28 287.00 392.00 Z"/>
</g>
<g fill="None" fill-opacity="0.0" stroke="#000000" stroke-opacity="0.00" stroke-width="0.3"><path d="
M 179.00 380.00 
C 179.00 380.00 179.02 380.50 179.00 381.00
C 178.70 387.06 187.25 386.94 189.22 381.22 C 191.19 375.51 182.38 377.05 179.00 380.00 Z"/>
</g>
<g fill="None" fill-opacity="0.0" stroke="#FADED2" stroke-opacity="0.16" stroke-width="0.3"><path d="
M 189.00 392.00 
C 193.18 390.69 195.30 386.22 199.00 384.00
C 203.65 391.21 221.04 401.89 229.00 396.00
C 216.93 396.70 206.09 391.94 198.00 383.00
C 195.79 386.63 191.76 389.11 189.00 392.00 Z"/>
</g>
<g fill="None" fill-opacity="0.0" stroke="#FADDCE" stroke-opacity="0.18" stroke-width="0.3"><path d="
M 307.00 396.00 
C 312.36 393.51 316.50 388.66 321.00 385.00
C 325.46 394.29 336.59 401.43 347.00 397.00
C 336.36 398.98 325.85 394.15 322.00 384.00
C 317.11 387.37 311.17 391.65 307.00 396.00 Z"/>
</g>
<g fill="None" fill-opacity="0.0" stroke="#FAD4C5" stroke-opacity="0.18" stroke-width="0.3"><path d="
M 230.00 396.00 
C 235.60 396.37 238.71 390.15 244.00 390.00
C 247.11 397.67 265.09 403.11 272.00 398.00
C 264.20 397.99 253.42 399.95 247.75 393.25 C 242.08 386.55 236.28 392.71 230.00 396.00 Z"/>
</g>
<g fill="None" fill-opacity="0.0" stroke="#FAD7C8" stroke-opacity="0.13" stroke-width="0.3"><path d="
M 273.00 398.00 
C 276.95 397.85 283.84 395.46 286.00 392.00
C 282.20 393.49 275.90 395.65 273.00 398.00 Z"/>
</g>
<g fill="None" fill-opacity="0.0" stroke="#FCCCB3" stroke-opacity="0.27" stroke-width="0.3"><path d="
M 295.00 398.00 
C 295.00 398.00 294.75 398.80 295.00 399.00
C 297.74 401.28 304.31 398.70 306.00 396.00
C 302.33 398.31 299.22 397.61 295.00 398.00 Z"/>
</g>
<g fill="#000000" fill-opacity="0.00" stroke="None">
<path d="
M 0.00 528.00 
L 534.00 528.00
L 534.00 0.00
L 0.00 0.00
L 0.00 528.00
M 290.00 97.00 
C 295.72 111.05 271.35 113.51 274.00 99.00
C 275.62 90.15 286.44 88.26 290.00 97.00
M 253.00 103.00 
C 258.52 105.24 254.31 114.52 248.33 111.67 C 242.34 108.82 246.41 100.33 253.00 103.00
M 331.00 123.00 
C 330.95 123.49 331.00 124.00 331.00 124.00
C 326.18 133.85 312.01 129.54 314.00 118.00 C 315.99 106.46 338.17 113.79 331.00 123.00
M 286.00 155.00 
C 284.60 158.56 283.06 161.68 281.00 165.00
C 278.78 168.58 275.87 172.57 274.00 176.00
C 272.29 179.96 270.96 184.03 269.00 188.00
C 260.98 209.74 269.36 227.54 277.00 247.00
C 279.16 252.51 282.17 257.80 282.00 264.00
C 283.74 254.90 283.95 243.20 285.98 233.98 C 288.00 224.75 293.19 219.42 298.70 212.70 C 304.20 205.97 321.63 203.89 310.00 213.00
C 308.95 213.49 308.02 213.59 307.00 214.00
C 303.87 215.74 301.11 219.83 298.00 222.00
C 297.80 222.40 298.00 223.00 298.00 223.00
C 293.69 233.97 287.95 246.39 293.00 258.00
C 297.13 253.61 301.83 250.71 306.25 246.25 C 310.67 241.78 314.15 238.51 318.75 233.75 C 323.35 228.99 324.27 223.57 327.32 217.32 C 330.37 211.07 329.12 204.84 332.93 197.93 C 336.74 191.01 341.03 204.92 339.00 211.00 C 336.97 217.08 335.87 224.11 333.00 230.00
C 340.47 224.47 360.64 218.23 361.00 233.00
C 356.33 233.00 351.67 233.00 347.00 233.00
C 341.67 234.55 336.01 236.66 331.00 239.00
C 320.99 244.95 307.26 256.13 300.00 266.00
C 299.33 267.08 298.78 268.78 298.00 270.00
C 291.57 280.14 289.62 284.81 287.00 297.00 C 284.39 309.19 292.83 315.17 299.00 324.00
C 299.40 324.20 300.00 324.00 300.00 324.00
C 303.46 325.36 314.57 330.13 309.00 334.00
C 306.01 336.08 302.98 334.52 300.00 334.00
C 296.60 333.40 292.86 333.35 290.00 332.00
C 289.50 332.05 289.00 332.00 289.00 332.00
C 280.33 332.00 271.67 332.00 263.00 332.00
C 262.50 332.00 261.50 332.00 261.00 332.00
C 257.59 333.45 252.13 333.37 248.00 333.00
C 242.71 331.79 254.25 325.02 257.75 321.75 C 261.25 318.49 264.70 309.08 265.00 303.00 C 265.30 296.92 266.68 287.18 264.22 280.78 C 261.76 274.38 256.35 271.54 252.00 267.00
C 251.56 266.84 251.00 267.00 251.00 267.00
C 233.68 260.20 220.00 247.49 216.00 229.00
C 213.81 228.48 210.38 230.14 209.00 228.00
C 208.50 228.05 208.00 228.00 208.00 228.00
C 199.53 226.35 200.10 212.50 208.22 211.22 C 216.35 209.95 222.83 217.61 223.00 225.00
C 223.01 225.50 223.00 226.00 223.00 226.00
C 228.53 232.81 229.36 245.51 239.70 249.30 C 250.04 253.09 255.89 260.48 266.00 264.00
C 266.24 256.59 263.23 249.43 259.75 243.25 C 256.26 237.08 251.37 233.64 247.25 227.75 C 243.13 221.87 239.87 217.53 238.07 209.93 C 236.27 202.32 232.91 195.87 233.07 186.93 C 233.24 177.98 231.32 173.55 223.78 169.22 C 216.24 164.89 234.13 160.03 236.90 168.10 C 239.67 176.17 244.19 180.82 243.00 190.00
C 242.97 190.50 243.00 191.50 243.00 192.00
C 246.27 199.70 244.12 211.65 253.00 217.00
C 253.00 216.00 253.00 215.00 253.00 214.00
C 252.74 213.76 253.00 211.39 253.00 211.00
C 252.28 207.73 252.29 205.22 253.00 202.00
C 253.00 201.00 253.00 200.00 253.00 199.00
C 252.96 189.90 258.86 180.52 253.02 171.98 C 247.19 163.43 250.29 149.87 250.78 141.78 C 251.27 133.69 259.77 120.73 268.00 124.00 C 276.23 127.27 256.91 135.64 258.02 144.02 C 259.14 152.41 256.25 165.79 262.00 174.00
C 268.79 165.71 276.77 154.93 281.31 145.31 C 285.84 135.68 286.52 135.59 286.93 126.93 C 287.34 118.26 288.10 109.30 292.97 117.03 C 297.85 124.75 293.54 129.96 293.07 137.07 C 292.61 144.19 289.82 149.75 286.00 155.00
M 236.00 134.00 
C 236.59 136.03 236.51 136.89 236.00 139.00
C 233.53 149.26 218.19 148.74 217.07 137.93 C 215.96 127.12 232.82 123.13 236.00 134.00
M 310.00 145.00 
C 317.35 147.30 312.92 159.01 305.00 156.00 C 297.08 152.99 302.29 142.59 310.00 145.00
M 352.00 161.00 
C 351.60 161.20 351.00 161.00 351.00 161.00
C 345.04 168.78 331.84 153.41 341.75 146.75 C 351.67 140.10 362.48 155.87 352.00 161.00
M 202.00 155.00 
C 202.94 157.62 203.10 161.50 199.00 162.00
C 198.51 162.06 198.00 162.00 198.00 162.00
C 191.46 167.14 185.83 153.59 195.00 151.00
C 198.66 149.97 200.68 151.33 202.00 155.00
M 326.00 170.00 
C 338.51 172.65 332.66 194.32 320.33 190.67 C 307.99 187.01 312.64 167.17 326.00 170.00
M 298.00 190.00 
C 298.64 194.85 297.50 195.94 294.00 198.00
C 286.48 202.42 276.95 195.81 281.31 187.31 C 285.66 178.80 296.99 182.34 298.00 190.00
M 210.00 189.00 
C 210.71 190.51 210.66 190.44 210.00 192.00
C 207.94 196.91 199.29 199.66 198.08 192.92 C 196.87 186.19 207.16 182.94 210.00 189.00
M 370.00 190.00 
C 380.01 193.47 373.22 211.46 362.78 206.22 C 352.34 200.99 358.94 186.17 370.00 190.00
M 184.00 215.00 
C 183.60 215.20 183.00 215.00 183.00 215.00
C 176.70 223.23 163.30 206.63 173.30 200.30 C 183.29 193.97 195.09 209.57 184.00 215.00
M 204.00 244.00 
C 216.55 246.27 212.67 266.49 200.00 264.00 C 187.33 261.51 191.68 241.77 204.00 244.00
M 351.00 250.00 
C 357.57 250.87 356.59 260.77 349.00 260.00 C 341.40 259.22 344.27 249.11 351.00 250.00
M 236.00 310.00 
C 255.61 319.91 229.20 343.42 219.00 350.00
C 213.49 353.55 210.13 355.53 208.00 362.00
C 206.77 365.75 206.43 371.00 204.00 374.00
C 203.92 374.49 204.00 375.00 204.00 375.00
C 207.89 381.09 214.83 383.85 220.00 388.00
C 220.47 388.11 221.00 388.00 221.00 388.00
C 229.77 388.00 241.24 385.51 243.77 375.77 C 246.30 366.03 249.08 359.23 255.70 352.70 C 262.32 346.17 271.60 342.29 281.00 345.00
C 301.11 351.29 282.40 370.14 272.00 375.00
C 267.03 377.33 262.00 378.20 257.00 380.00
C 256.23 380.39 255.36 381.59 254.00 381.00
C 260.92 399.20 284.83 386.26 294.00 376.00
C 298.13 372.47 301.11 368.48 304.00 364.00
C 309.17 355.99 308.81 356.00 315.25 348.25 C 321.69 340.50 327.23 355.63 327.00 360.00
C 329.15 351.07 351.75 332.98 357.00 347.00
C 359.21 352.89 354.53 356.41 351.00 350.00
C 341.61 355.03 331.12 362.44 331.00 375.00 C 330.89 387.56 349.42 392.54 358.00 383.00
C 359.45 381.45 361.63 380.38 363.00 379.00
C 365.25 376.73 366.96 372.77 371.00 374.00
C 370.05 385.25 358.91 393.64 349.00 397.00
C 348.54 397.13 347.50 397.00 347.00 397.00
C 336.59 401.43 325.46 394.29 321.00 385.00
C 316.50 388.66 312.36 393.51 307.00 396.00
C 306.56 396.16 306.00 396.00 306.00 396.00
C 304.31 398.70 297.74 401.28 295.00 399.00
C 291.16 395.29 305.51 389.49 308.75 385.75 C 311.99 382.01 320.34 371.11 314.00 365.00
C 312.06 366.55 311.84 370.13 309.00 371.00
C 308.06 372.55 307.25 374.42 306.00 376.00
C 301.24 382.03 294.14 389.42 287.00 392.00
C 286.56 392.16 286.00 392.00 286.00 392.00
C 283.84 395.46 276.95 397.85 273.00 398.00
C 272.50 398.02 272.00 398.00 272.00 398.00
C 265.09 403.11 247.11 397.67 244.00 390.00
C 238.71 390.15 235.60 396.37 230.00 396.00
C 229.50 396.01 229.00 396.00 229.00 396.00
C 221.04 401.89 203.65 391.21 199.00 384.00
C 195.30 386.22 193.18 390.69 189.00 392.00
C 188.56 392.16 188.00 392.00 188.00 392.00
C 181.48 400.52 164.60 388.80 169.78 379.78 C 174.96 370.76 184.68 367.36 195.00 370.00
C 200.17 357.93 203.88 343.46 208.31 331.31 C 212.73 319.15 220.90 303.42 236.00 310.00 Z"/>
</g>
<g fill="#FBE2D6" fill-opacity="0.25" stroke="None">
<path d="
M 274.00 99.00 
C 274.02 100.68 274.61 100.90 275.00 102.00
C 273.73 92.37 287.15 87.97 290.00 97.00
C 286.44 88.26 275.62 90.15 274.00 99.00 Z"/>
</g>
<g fill="#F46021" fill-opacity="0.96" stroke="None">
<path d="
M 275.00 102.00 
C 278.57 112.13 293.55 108.26 290.00 97.00
C 287.15 87.97 273.73 92.37 275.00 102.00 Z"/>
</g>
<g fill="#FBEDE5" fill-opacity="0.09" stroke="None">
<path d="
M 275.00 102.00 
C 274.61 100.90 274.02 100.68 274.00 99.00
C 271.35 113.51 295.72 111.05 290.00 97.00
C 293.55 108.26 278.57 112.13 275.00 102.00 Z"/>
</g>
<g fill="#FBE6DB" fill-opacity="0.21" stroke="None">
<path d="
M 253.00 103.00 
C 246.41 100.33 242.34 108.82 248.33 111.67 C 254.31 114.52 258.52 105.24 253.00 103.00
M 253.00 104.00 
C 256.64 105.63 253.43 113.41 249.00 111.00 C 244.56 108.58 247.91 101.72 253.00 104.00 Z"/>
</g>
<g fill="#F46027" fill-opacity="0.94" stroke="None">
<path d="
M 253.00 104.00 
C 247.91 101.72 244.56 108.58 249.00 111.00 C 253.43 113.41 256.64 105.63 253.00 104.00 Z"/>
</g>
<g fill="#FBEDE5" fill-opacity="0.15" stroke="None">
<path d="
M 331.00 124.00 
C 324.89 128.27 312.68 130.69 315.00 119.00 C 317.32 107.31 332.00 113.72 331.00 123.00
C 338.17 113.79 315.99 106.46 314.00 118.00 C 312.01 129.54 326.18 133.85 331.00 124.00 Z"/>
</g>
<g fill="#FBE6DB" fill-opacity="0.20" stroke="None">
<path d="
M 253.00 199.00 
C 253.27 198.75 254.00 199.00 254.00 199.00
C 254.56 190.70 258.94 184.58 255.22 176.78 C 251.51 168.98 250.77 160.66 251.00 152.00 C 251.23 143.34 251.01 135.56 257.75 128.75 C 264.49 121.95 272.66 126.36 263.75 131.75 C 254.84 137.14 257.01 145.07 256.00 153.00 C 254.99 160.93 260.25 169.58 262.00 177.00
C 266.70 171.23 269.27 165.32 274.25 159.25 C 279.24 153.19 281.65 146.15 284.98 138.98 C 288.30 131.80 285.91 118.88 291.00 114.00
C 296.82 127.42 291.72 142.40 286.00 155.00
C 289.82 149.75 292.61 144.19 293.07 137.07 C 293.54 129.96 297.85 124.75 292.97 117.03 C 288.10 109.30 287.34 118.26 286.93 126.93 C 286.52 135.59 285.84 135.68 281.31 145.31 C 276.77 154.93 268.79 165.71 262.00 174.00
C 256.25 165.79 259.14 152.41 258.02 144.02 C 256.91 135.64 276.23 127.27 268.00 124.00 C 259.77 120.73 251.27 133.69 250.78 141.78 C 250.29 149.87 247.19 163.43 253.02 171.98 C 258.86 180.52 252.96 189.90 253.00 199.00 Z"/>
</g>
<g fill="#F45F1F" fill-opacity="0.96" stroke="None">
<path d="
M 331.00 124.00 
C 331.00 124.00 330.95 123.49 331.00 123.00
C 332.00 113.72 317.32 107.31 315.00 119.00 C 312.68 130.69 324.89 128.27 331.00 124.00 Z"/>
</g>
<g fill="#F45F1F" fill-opacity="0.96" stroke="None">
<path d="
M 254.00 199.00 
C 253.66 203.97 254.20 209.02 254.00 214.00
C 253.92 215.89 254.77 218.92 253.00 220.00
C 246.50 212.04 242.22 202.63 243.00 192.00
C 243.00 191.50 242.97 190.50 243.00 190.00
C 240.78 182.65 240.29 176.68 236.74 169.26 C 233.20 161.83 218.17 165.05 226.03 168.97 C 233.89 172.89 234.16 180.21 234.78 188.22 C 235.40 196.23 236.79 203.67 239.32 210.68 C 241.86 217.68 244.83 223.05 249.25 228.75 C 253.67 234.45 257.64 237.50 261.25 243.75 C 264.87 249.99 267.72 258.30 267.00 266.00
C 250.98 255.38 225.42 248.80 223.00 226.00
C 223.00 226.00 223.01 225.50 223.00 225.00
C 220.34 220.14 217.67 210.05 209.00 212.00 C 200.32 213.95 202.24 224.31 208.00 228.00
C 208.00 228.00 208.50 228.05 209.00 228.00
C 221.71 226.80 221.00 242.19 226.75 250.25 C 232.51 258.30 246.13 259.21 251.00 267.00
C 251.00 267.00 251.56 266.84 252.00 267.00
C 260.26 269.98 264.16 277.24 266.78 285.22 C 269.39 293.20 263.92 308.32 263.22 315.22 C 262.53 322.13 245.74 329.03 248.00 332.00
C 252.25 331.61 256.73 332.00 261.00 332.00
C 261.50 332.00 262.50 332.00 263.00 332.00
C 264.22 331.63 265.25 331.10 267.00 331.00
C 272.86 329.96 280.19 329.56 286.00 331.00
C 287.70 331.15 287.85 330.93 289.00 332.00
C 289.00 332.00 289.50 332.05 290.00 332.00
C 294.20 331.60 296.70 332.97 300.00 334.00
C 302.98 334.52 306.01 336.08 309.00 334.00
C 312.77 330.23 301.45 326.33 300.00 324.00
C 300.00 324.00 299.40 324.20 299.00 324.00
C 276.55 313.02 286.87 284.02 298.00 270.00
C 298.78 268.78 299.33 267.08 300.00 266.00
C 306.41 255.64 320.50 243.91 331.00 239.00
C 336.01 236.66 341.67 234.55 347.00 233.00
C 350.75 231.91 355.58 231.74 360.00 232.00
C 357.50 218.21 338.71 227.45 331.00 232.00
C 335.25 220.97 341.52 208.02 336.00 196.00
C 329.21 206.65 329.46 224.26 320.08 234.08 C 310.71 243.90 302.24 252.63 291.00 259.00
C 289.80 246.70 289.70 232.61 298.00 223.00
C 298.00 223.00 297.80 222.40 298.00 222.00
C 299.58 218.76 303.84 215.26 307.00 214.00
C 308.02 213.59 308.95 213.49 310.00 213.00
C 311.26 212.20 312.07 210.08 314.00 210.00
C 309.97 204.30 300.22 210.86 295.75 216.75 C 291.28 222.64 287.74 230.21 286.07 238.07 C 284.40 245.93 284.91 257.92 283.00 266.00
C 279.05 260.91 279.99 252.70 276.00 247.00
C 268.52 227.94 258.85 208.53 269.00 188.00
C 270.96 184.03 272.29 179.96 274.00 176.00
C 275.84 171.75 278.32 168.46 281.00 165.00
C 283.06 161.68 284.60 158.56 286.00 155.00
C 291.72 142.40 296.82 127.42 291.00 114.00
C 285.91 118.88 288.30 131.80 284.98 138.98 C 281.65 146.15 279.24 153.19 274.25 159.25 C 269.27 165.32 266.70 171.23 262.00 177.00
C 260.25 169.58 254.99 160.93 256.00 153.00 C 257.01 145.07 254.84 137.14 263.75 131.75 C 272.66 126.36 264.49 121.95 257.75 128.75 C 251.01 135.56 251.23 143.34 251.00 152.00 C 250.77 160.66 251.51 168.98 255.22 176.78 C 258.94 184.58 254.56 190.70 254.00 199.00 Z"/>
</g>
<g fill="#FCE0D4" fill-opacity="0.21" stroke="None">
<path d="
M 236.00 139.00 
C 233.04 147.95 219.16 146.85 219.00 137.00 C 218.85 127.14 232.62 125.53 236.00 134.00
C 232.82 123.13 215.96 127.12 217.07 137.93 C 218.19 148.74 233.53 149.26 236.00 139.00 Z"/>
</g>
<g fill="#F45F20" fill-opacity="0.96" stroke="None">
<path d="
M 236.00 139.00 
C 236.51 136.89 236.59 136.03 236.00 134.00
C 232.62 125.53 218.85 127.14 219.00 137.00 C 219.16 146.85 233.04 147.95 236.00 139.00 Z"/>
</g>
<g fill="#FAEFE7" fill-opacity="0.15" stroke="None">
<path d="
M 310.00 145.00 
C 302.29 142.59 297.08 152.99 305.00 156.00 C 312.92 159.01 317.35 147.30 310.00 145.00
M 310.00 146.00 
C 316.36 148.38 311.25 158.31 305.00 155.00 C 298.75 151.69 303.77 143.66 310.00 146.00 Z"/>
</g>
<g fill="#FBEDE3" fill-opacity="0.14" stroke="None">
<path d="
M 351.00 161.00 
C 343.18 164.40 333.52 153.12 342.25 147.25 C 350.97 141.38 359.50 153.96 352.00 161.00
C 362.48 155.87 351.67 140.10 341.75 146.75 C 331.84 153.41 345.04 168.78 351.00 161.00 Z"/>
</g>
<g fill="#F45C1E" fill-opacity="0.95" stroke="None">
<path d="
M 310.00 146.00 
C 303.77 143.66 298.75 151.69 305.00 155.00 C 311.25 158.31 316.36 148.38 310.00 146.00 Z"/>
</g>
<g fill="#F46224" fill-opacity="0.95" stroke="None">
<path d="
M 351.00 161.00 
C 351.00 161.00 351.60 161.20 352.00 161.00
C 359.50 153.96 350.97 141.38 342.25 147.25 C 333.52 153.12 343.18 164.40 351.00 161.00 Z"/>
</g>
<g fill="#F66A35" fill-opacity="0.89" stroke="None">
<path d="
M 195.00 151.00 
C 188.39 153.60 190.21 163.17 198.00 162.00
C 198.00 162.00 198.51 162.06 199.00 162.00
C 200.99 160.13 202.41 157.84 202.00 155.00
C 200.68 151.33 198.66 149.97 195.00 151.00 Z"/>
</g>
<g fill="#F9E5DB" fill-opacity="0.16" stroke="None">
<path d="
M 198.00 162.00 
C 190.21 163.17 188.39 153.60 195.00 151.00
C 185.83 153.59 191.46 167.14 198.00 162.00 Z"/>
</g>
<g fill="#F9D9CA" fill-opacity="0.17" stroke="None">
<path d="
M 199.00 162.00 
C 203.10 161.50 202.94 157.62 202.00 155.00
C 202.41 157.84 200.99 160.13 199.00 162.00 Z"/>
</g>
<g fill="#FAE7DC" fill-opacity="0.19" stroke="None">
<path d="
M 223.00 226.00 
C 225.42 248.80 250.98 255.38 267.00 266.00
C 267.72 258.30 264.87 249.99 261.25 243.75 C 257.64 237.50 253.67 234.45 249.25 228.75 C 244.83 223.05 241.86 217.68 239.32 210.68 C 236.79 203.67 235.40 196.23 234.78 188.22 C 234.16 180.21 233.89 172.89 226.03 168.97 C 218.17 165.05 233.20 161.83 236.74 169.26 C 240.29 176.68 240.78 182.65 243.00 190.00
C 244.19 180.82 239.67 176.17 236.90 168.10 C 234.13 160.03 216.24 164.89 223.78 169.22 C 231.32 173.55 233.24 177.98 233.07 186.93 C 232.91 195.87 236.27 202.32 238.07 209.93 C 239.87 217.53 243.13 221.87 247.25 227.75 C 251.37 233.64 256.26 237.08 259.75 243.25 C 263.23 249.43 266.24 256.59 266.00 264.00
C 255.89 260.48 250.04 253.09 239.70 249.30 C 229.36 245.51 228.53 232.81 223.00 226.00 Z"/>
</g>
<g fill="#FCD4C6" fill-opacity="0.11" stroke="None">
<path d="
M 274.00 176.00 
C 275.87 172.57 278.78 168.58 281.00 165.00
C 278.32 168.46 275.84 171.75 274.00 176.00 Z"/>
</g>
<g fill="#FAEBE3" fill-opacity="0.16" stroke="None">
<path d="
M 326.00 170.00 
C 312.64 167.17 307.99 187.01 320.33 190.67 C 332.66 194.32 338.51 172.65 326.00 170.00
M 326.00 171.00 
C 337.09 173.98 331.52 193.29 320.33 189.67 C 309.14 186.04 314.27 167.85 326.00 171.00 Z"/>
</g>
<g fill="#F45F1E" fill-opacity="0.96" stroke="None">
<path d="
M 326.00 171.00 
C 314.27 167.85 309.14 186.04 320.33 189.67 C 331.52 193.29 337.09 173.98 326.00 171.00 Z"/>
</g>
<g fill="#FCE8DF" fill-opacity="0.16" stroke="None">
<path d="
M 294.00 198.00 
C 286.58 200.98 279.17 195.71 282.31 188.31 C 285.44 180.90 296.67 183.22 298.00 190.00
C 296.99 182.34 285.66 178.80 281.31 187.31 C 276.95 195.81 286.48 202.42 294.00 198.00 Z"/>
</g>
<g fill="#F5652B" fill-opacity="0.93" stroke="None">
<path d="
M 294.00 198.00 
C 297.50 195.94 298.64 194.85 298.00 190.00
C 296.67 183.22 285.44 180.90 282.31 188.31 C 279.17 195.71 286.58 200.98 294.00 198.00 Z"/>
</g>
<g fill="#FAE3D7" fill-opacity="0.17" stroke="None">
<path d="
M 210.00 192.00 
C 208.04 195.43 199.94 198.47 199.08 192.92 C 198.21 187.38 207.03 184.62 210.00 189.00
C 207.16 182.94 196.87 186.19 198.08 192.92 C 199.29 199.66 207.94 196.91 210.00 192.00 Z"/>
</g>
<g fill="#F5652E" fill-opacity="0.92" stroke="None">
<path d="
M 210.00 192.00 
C 210.66 190.44 210.71 190.51 210.00 189.00
C 207.03 184.62 198.21 187.38 199.08 192.92 C 199.94 198.47 208.04 195.43 210.00 192.00 Z"/>
</g>
<g fill="#FADCCD" fill-opacity="0.14" stroke="None">
<path d="
M 276.00 247.00 
C 276.06 247.16 277.00 247.00 277.00 247.00
C 269.36 227.54 260.98 209.74 269.00 188.00
C 258.85 208.53 268.52 227.94 276.00 247.00 Z"/>
</g>
<g fill="#FBE2D5" fill-opacity="0.16" stroke="None">
<path d="
M 370.00 190.00 
C 358.94 186.17 352.34 200.99 362.78 206.22 C 373.22 211.46 380.01 193.47 370.00 190.00
M 370.00 191.00 
C 378.86 194.46 371.94 210.72 362.78 205.22 C 353.62 199.73 360.63 187.35 370.00 191.00 Z"/>
</g>
<g fill="#F45F1E" fill-opacity="0.96" stroke="None">
<path d="
M 370.00 191.00 
C 360.63 187.35 353.62 199.73 362.78 205.22 C 371.94 210.72 378.86 194.46 370.00 191.00 Z"/>
</g>
<g fill="#FBEDE4" fill-opacity="0.14" stroke="None">
<path d="
M 254.00 214.00 
C 254.00 214.04 253.00 214.00 253.00 214.00
C 253.00 215.00 253.00 216.00 253.00 217.00
C 244.12 211.65 246.27 199.70 243.00 192.00
C 242.22 202.63 246.50 212.04 253.00 220.00
C 254.77 218.92 253.92 215.89 254.00 214.00 Z"/>
</g>
<g fill="#FAE7DD" fill-opacity="0.20" stroke="None">
<path d="
M 298.00 223.00 
C 289.70 232.61 289.80 246.70 291.00 259.00
C 302.24 252.63 310.71 243.90 320.08 234.08 C 329.46 224.26 329.21 206.65 336.00 196.00
C 341.52 208.02 335.25 220.97 331.00 232.00
C 338.71 227.45 357.50 218.21 360.00 232.00
C 355.58 231.74 350.75 231.91 347.00 233.00
C 351.67 233.00 356.33 233.00 361.00 233.00
C 360.64 218.23 340.47 224.47 333.00 230.00
C 335.87 224.11 336.97 217.08 339.00 211.00 C 341.03 204.92 336.74 191.01 332.93 197.93 C 329.12 204.84 330.37 211.07 327.32 217.32 C 324.27 223.57 323.35 228.99 318.75 233.75 C 314.15 238.51 310.67 241.78 306.25 246.25 C 301.83 250.71 297.13 253.61 293.00 258.00
C 287.95 246.39 293.69 233.97 298.00 223.00 Z"/>
</g>
<g fill="#FAEAE3" fill-opacity="0.15" stroke="None">
<path d="
M 183.00 215.00 
C 174.33 218.08 165.32 207.56 174.25 201.25 C 183.17 194.93 191.41 208.05 184.00 215.00
C 195.09 209.57 183.29 193.97 173.30 200.30 C 163.30 206.63 176.70 223.23 183.00 215.00 Z"/>
</g>
<g fill="#F8C7B5" fill-opacity="0.51" stroke="None">
<path d="
M 253.00 202.00 
C 253.00 205.00 253.00 208.00 253.00 211.00
C 253.00 211.39 252.74 213.76 253.00 214.00
C 253.00 214.00 254.00 214.04 254.00 214.00
C 254.20 209.02 253.66 203.97 254.00 199.00
C 254.00 199.00 253.27 198.75 253.00 199.00
C 253.00 200.00 253.00 201.00 253.00 202.00 Z"/>
</g>
<g fill="#F45D1C" fill-opacity="0.96" stroke="None">
<path d="
M 183.00 215.00 
C 183.00 215.00 183.60 215.20 184.00 215.00
C 191.41 208.05 183.17 194.93 174.25 201.25 C 165.32 207.56 174.33 218.08 183.00 215.00 Z"/>
</g>
<g fill="#FFFFFF" fill-opacity="0.01" stroke="None">
<path d="
M 253.00 211.00 
C 253.00 208.00 253.00 205.00 253.00 202.00
C 252.29 205.22 252.28 207.73 253.00 211.00 Z"/>
</g>
<g fill="#FADFD3" fill-opacity="0.24" stroke="None">
<path d="
M 277.00 247.00 
C 277.00 247.00 276.06 247.16 276.00 247.00
C 279.99 252.70 279.05 260.91 283.00 266.00
C 284.91 257.92 284.40 245.93 286.07 238.07 C 287.74 230.21 291.28 222.64 295.75 216.75 C 300.22 210.86 309.97 204.30 314.00 210.00
C 312.07 210.08 311.26 212.20 310.00 213.00
C 321.63 203.89 304.20 205.97 298.70 212.70 C 293.19 219.42 288.00 224.75 285.98 233.98 C 283.95 243.20 283.74 254.90 282.00 264.00
C 282.17 257.80 279.16 252.51 277.00 247.00 Z"/>
</g>
<g fill="#FAE8DE" fill-opacity="0.17" stroke="None">
<path d="
M 208.00 228.00 
C 202.24 224.31 200.32 213.95 209.00 212.00 C 217.67 210.05 220.34 220.14 223.00 225.00
C 222.83 217.61 216.35 209.95 208.22 211.22 C 200.10 212.50 199.53 226.35 208.00 228.00 Z"/>
</g>
<g fill="#F9E2D7" fill-opacity="0.18" stroke="None">
<path d="
M 298.00 222.00 
C 301.11 219.83 303.87 215.74 307.00 214.00
C 303.84 215.26 299.58 218.76 298.00 222.00 Z"/>
</g>
<g fill="#F9E6DB" fill-opacity="0.20" stroke="None">
<path d="
M 251.00 267.00 
C 246.13 259.21 232.51 258.30 226.75 250.25 C 221.00 242.19 221.71 226.80 209.00 228.00
C 210.38 230.14 213.81 228.48 216.00 229.00
C 220.00 247.49 233.68 260.20 251.00 267.00 Z"/>
</g>
<g fill="#FAE0D3" fill-opacity="0.10" stroke="None">
<path d="
M 300.00 266.00 
C 307.26 256.13 320.99 244.95 331.00 239.00
C 320.50 243.91 306.41 255.64 300.00 266.00 Z"/>
</g>
<g fill="#FBE5DA" fill-opacity="0.16" stroke="None">
<path d="
M 204.00 244.00 
C 191.68 241.77 187.33 261.51 200.00 264.00 C 212.67 266.49 216.55 246.27 204.00 244.00
M 204.00 245.00 
C 215.44 246.91 211.25 265.79 200.00 263.00 C 188.75 260.21 193.05 243.17 204.00 245.00 Z"/>
</g>
<g fill="#F46020" fill-opacity="0.96" stroke="None">
<path d="
M 204.00 245.00 
C 193.05 243.17 188.75 260.21 200.00 263.00 C 211.25 265.79 215.44 246.91 204.00 245.00 Z"/>
</g>
<g fill="#FADED0" fill-opacity="0.21" stroke="None">
<path d="
M 351.00 250.00 
C 344.27 249.11 341.40 259.22 349.00 260.00 C 356.59 260.77 357.57 250.87 351.00 250.00
M 353.00 252.00 
C 357.43 254.99 351.28 262.02 346.78 258.22 C 342.28 254.42 349.33 249.52 353.00 252.00 Z"/>
</g>
<g fill="#F56024" fill-opacity="0.95" stroke="None">
<path d="
M 353.00 252.00 
C 349.33 249.52 342.28 254.42 346.78 258.22 C 351.28 262.02 357.43 254.99 353.00 252.00 Z"/>
</g>
<g fill="#FAE4D8" fill-opacity="0.23" stroke="None">
<path d="
M 248.00 333.00 
C 247.96 333.00 248.00 332.00 248.00 332.00
C 245.74 329.03 262.53 322.13 263.22 315.22 C 263.92 308.32 269.39 293.20 266.78 285.22 C 264.16 277.24 260.26 269.98 252.00 267.00
C 256.35 271.54 261.76 274.38 264.22 280.78 C 266.68 287.18 265.30 296.92 265.00 303.00 C 264.70 309.08 261.25 318.49 257.75 321.75 C 254.25 325.02 242.71 331.79 248.00 333.00 Z"/>
</g>
<g fill="#FCE7DD" fill-opacity="0.11" stroke="None">
<path d="
M 299.00 324.00 
C 292.83 315.17 284.39 309.19 287.00 297.00 C 289.62 284.81 291.57 280.14 298.00 270.00
C 286.87 284.02 276.55 313.02 299.00 324.00 Z"/>
</g>
<g fill="#F9E7DE" fill-opacity="0.22" stroke="None">
<path d="
M 188.00 392.00 
C 178.87 395.23 165.87 389.18 170.93 378.93 C 175.98 368.67 187.52 370.42 196.00 371.00
C 201.10 359.06 205.01 344.27 209.31 332.31 C 213.60 320.34 221.08 304.54 236.00 311.00
C 235.85 310.95 236.00 310.00 236.00 310.00
C 220.90 303.42 212.73 319.15 208.31 331.31 C 203.88 343.46 200.17 357.93 195.00 370.00
C 184.68 367.36 174.96 370.76 169.78 379.78 C 164.60 388.80 181.48 400.52 188.00 392.00 Z"/>
</g>
<g fill="#F46021" fill-opacity="0.95" stroke="None">
<path d="
M 188.00 392.00 
C 188.00 392.00 188.56 392.16 189.00 392.00
C 191.76 389.11 195.79 386.63 198.00 383.00
C 206.09 391.94 216.93 396.70 229.00 396.00
C 229.00 396.00 229.50 396.01 230.00 396.00
C 236.28 392.71 242.08 386.55 247.75 393.25 C 253.42 399.95 264.20 397.99 272.00 398.00
C 272.00 398.00 272.50 398.02 273.00 398.00
C 275.90 395.65 282.20 393.49 286.00 392.00
C 286.00 392.00 286.56 392.16 287.00 392.00
C 292.48 386.28 300.33 382.13 306.00 376.00
C 307.25 374.42 308.06 372.55 309.00 371.00
C 310.56 368.42 312.65 366.08 313.00 363.00
C 325.80 376.53 304.05 390.37 295.00 398.00
C 299.22 397.61 302.33 398.31 306.00 396.00
C 306.00 396.00 306.56 396.16 307.00 396.00
C 311.17 391.65 317.11 387.37 322.00 384.00
C 325.85 394.15 336.36 398.98 347.00 397.00
C 347.50 397.00 348.54 397.13 349.00 397.00
C 352.12 394.83 359.24 390.65 362.25 388.25 C 365.26 385.84 372.87 375.55 368.00 375.00
C 365.48 378.88 361.68 381.60 358.00 384.00
C 349.13 393.90 329.78 388.03 330.01 374.99 C 330.24 361.95 341.08 353.67 351.00 349.00
C 352.92 354.41 358.84 352.91 357.00 347.00
C 355.17 341.37 342.64 343.38 339.25 347.25 C 335.87 351.13 330.08 356.01 327.00 360.00
C 325.99 361.31 325.97 363.59 324.00 364.00
C 326.14 358.78 323.59 343.35 316.98 347.98 C 310.36 352.60 311.63 357.72 306.00 363.00
C 301.45 370.05 295.74 376.68 289.00 382.00
C 282.84 386.86 275.22 389.43 268.00 391.00 C 260.77 392.56 248.03 383.23 257.00 380.00
C 262.00 378.20 267.03 377.33 272.00 375.00
C 283.19 368.43 296.94 355.16 281.00 346.00
C 272.32 345.35 261.91 346.58 255.75 353.75 C 249.60 360.93 246.81 369.10 244.22 377.22 C 241.64 385.35 228.24 393.34 221.00 388.00
C 221.00 388.00 220.47 388.11 220.00 388.00
C 214.92 386.81 205.11 380.67 204.00 375.00
C 204.00 375.00 203.92 374.49 204.00 374.00
C 204.74 369.52 206.28 365.84 208.00 362.00
C 210.13 355.53 213.49 353.55 219.00 350.00
C 224.79 345.29 231.69 339.15 236.30 333.30 C 240.91 327.46 245.97 314.21 236.00 311.00
C 221.08 304.54 213.60 320.34 209.31 332.31 C 205.01 344.27 201.10 359.06 196.00 371.00
C 187.52 370.42 175.98 368.67 170.93 378.93 C 165.87 389.18 178.87 395.23 188.00 392.00
M 213.00 347.00 
C 215.23 335.92 215.43 332.27 221.77 321.77 C 228.11 311.27 236.21 320.84 229.23 329.23 C 222.25 337.61 221.34 340.66 213.00 347.00
M 254.00 374.00 
C 255.81 364.33 258.71 361.81 266.25 354.25 C 273.79 346.68 283.62 355.79 275.25 363.25 C 266.88 370.70 264.68 373.21 254.00 374.00
M 179.00 381.00 
C 179.02 380.50 179.00 380.00 179.00 380.00
C 181.36 374.80 188.00 375.58 192.00 378.00
C 191.01 385.28 177.08 390.70 179.00 381.00 Z"/>
</g>
<g fill="#FBE9E0" fill-opacity="0.11" stroke="None">
<path d="
M 236.00 311.00 
C 245.97 314.21 240.91 327.46 236.30 333.30 C 231.69 339.15 224.79 345.29 219.00 350.00
C 229.20 343.42 255.61 319.91 236.00 310.00
C 236.00 310.00 235.85 310.95 236.00 311.00 Z"/>
</g>
<g fill="#FBE5DA" fill-opacity="0.20" stroke="None">
<path d="
M 213.00 347.00 
C 221.34 340.66 222.25 337.61 229.23 329.23 C 236.21 320.84 228.11 311.27 221.77 321.77 C 215.43 332.27 215.23 335.92 213.00 347.00
M 215.00 343.00 
C 216.66 333.49 217.39 331.54 222.31 322.31 C 227.22 313.07 235.26 320.60 229.08 328.08 C 222.89 335.56 222.15 337.56 215.00 343.00 Z"/>
</g>
<g fill="#000000" fill-opacity="0.00" stroke="None">
<path d="
M 215.00 343.00 
C 222.15 337.56 222.89 335.56 229.08 328.08 C 235.26 320.60 227.22 313.07 222.31 322.31 C 217.39 331.54 216.66 333.49 215.00 343.00 Z"/>
</g>
<g fill="#FBE8DD" fill-opacity="0.16" stroke="None">
<path d="
M 309.00 334.00 
C 314.57 330.13 303.46 325.36 300.00 324.00
C 301.45 326.33 312.77 330.23 309.00 334.00 Z"/>
</g>
<g fill="#F45826" fill-opacity="0.82" stroke="None">
<path d="
M 267.00 331.00 
C 273.12 330.65 279.89 330.48 286.00 331.00
C 280.19 329.56 272.86 329.96 267.00 331.00 Z"/>
</g>
<g fill="#F7CBBB" fill-opacity="0.17" stroke="None">
<path d="
M 263.00 332.00 
C 271.67 332.00 280.33 332.00 289.00 332.00
C 287.85 330.93 287.70 331.15 286.00 331.00
C 279.89 330.48 273.12 330.65 267.00 331.00
C 265.25 331.10 264.22 331.63 263.00 332.00 Z"/>
</g>
<g fill="#FAC3A9" fill-opacity="0.22" stroke="None">
<path d="
M 248.00 333.00 
C 252.13 333.37 257.59 333.45 261.00 332.00
C 256.73 332.00 252.25 331.61 248.00 332.00
C 248.00 332.00 247.96 333.00 248.00 333.00 Z"/>
</g>
<g fill="#FBD3C1" fill-opacity="0.17" stroke="None">
<path d="
M 300.00 334.00 
C 296.70 332.97 294.20 331.60 290.00 332.00
C 292.86 333.35 296.60 333.40 300.00 334.00 Z"/>
</g>
<g fill="#FADFD1" fill-opacity="0.27" stroke="None">
<path d="
M 327.00 360.00 
C 330.08 356.01 335.87 351.13 339.25 347.25 C 342.64 343.38 355.17 341.37 357.00 347.00
C 351.75 332.98 329.15 351.07 327.00 360.00 Z"/>
</g>
<g fill="#F9EBE1" fill-opacity="0.24" stroke="None">
<path d="
M 221.00 388.00 
C 228.24 393.34 241.64 385.35 244.22 377.22 C 246.81 369.10 249.60 360.93 255.75 353.75 C 261.91 346.58 272.32 345.35 281.00 346.00
C 280.78 345.88 281.00 345.00 281.00 345.00
C 271.60 342.29 262.32 346.17 255.70 352.70 C 249.08 359.23 246.30 366.03 243.77 375.77 C 241.24 385.51 229.77 388.00 221.00 388.00 Z"/>
</g>
<g fill="#FAE9DF" fill-opacity="0.12" stroke="None">
<path d="
M 281.00 346.00 
C 296.94 355.16 283.19 368.43 272.00 375.00
C 282.40 370.14 301.11 351.29 281.00 345.00
C 281.00 345.00 280.78 345.88 281.00 346.00 Z"/>
</g>
<g fill="#F9EBE0" fill-opacity="0.17" stroke="None">
<path d="
M 304.00 364.00 
C 304.50 363.54 305.56 363.40 306.00 363.00
C 311.63 357.72 310.36 352.60 316.98 347.98 C 323.59 343.35 326.14 358.78 324.00 364.00
C 325.97 363.59 325.99 361.31 327.00 360.00
C 327.23 355.63 321.69 340.50 315.25 348.25 C 308.81 356.00 309.17 355.99 304.00 364.00 Z"/>
</g>
<g fill="#FBE6DB" fill-opacity="0.16" stroke="None">
<path d="
M 358.00 384.00 
C 358.25 383.72 358.00 383.00 358.00 383.00
C 349.42 392.54 330.89 387.56 331.00 375.00 C 331.12 362.44 341.61 355.03 351.00 350.00
C 354.53 356.41 359.21 352.89 357.00 347.00
C 358.84 352.91 352.92 354.41 351.00 349.00
C 341.08 353.67 330.24 361.95 330.01 374.99 C 329.78 388.03 349.13 393.90 358.00 384.00 Z"/>
</g>
<g fill="#FAE7DE" fill-opacity="0.19" stroke="None">
<path d="
M 254.00 374.00 
C 264.68 373.21 266.88 370.70 275.25 363.25 C 283.62 355.79 273.79 346.68 266.25 354.25 C 258.71 361.81 255.81 364.33 254.00 374.00
M 255.00 373.00 
C 257.18 364.25 259.47 362.37 266.25 355.25 C 273.03 348.13 282.31 355.81 274.75 362.75 C 267.19 369.68 264.34 371.35 255.00 373.00 Z"/>
</g>
<g fill="#000000" fill-opacity="0.00" stroke="None">
<path d="
M 255.00 373.00 
C 264.34 371.35 267.19 369.68 274.75 362.75 C 282.31 355.81 273.03 348.13 266.25 355.25 C 259.47 362.37 257.18 364.25 255.00 373.00 Z"/>
</g>
<g fill="#FBD6C7" fill-opacity="0.15" stroke="None">
<path d="
M 204.00 374.00 
C 206.43 371.00 206.77 365.75 208.00 362.00
C 206.28 365.84 204.74 369.52 204.00 374.00 Z"/>
</g>
<g fill="#F9D7C7" fill-opacity="0.40" stroke="None">
<path d="
M 304.00 364.00 
C 301.11 368.48 298.13 372.47 294.00 376.00
C 292.26 377.74 290.75 380.38 289.00 382.00
C 295.74 376.68 301.45 370.05 306.00 363.00
C 305.56 363.40 304.50 363.54 304.00 364.00 Z"/>
</g>
<g fill="#FAF0E7" fill-opacity="0.19" stroke="None">
<path d="
M 309.00 371.00 
C 311.84 370.13 312.06 366.55 314.00 365.00
C 320.34 371.11 311.99 382.01 308.75 385.75 C 305.51 389.49 291.16 395.29 295.00 399.00
C 294.75 398.80 295.00 398.00 295.00 398.00
C 304.05 390.37 325.80 376.53 313.00 363.00
C 312.65 366.08 310.56 368.42 309.00 371.00 Z"/>
</g>
<g fill="#FAEADF" fill-opacity="0.12" stroke="None">
<path d="
M 363.00 379.00 
C 363.83 378.29 366.97 374.88 368.00 375.00
C 372.87 375.55 365.26 385.84 362.25 388.25 C 359.24 390.65 352.12 394.83 349.00 397.00
C 358.91 393.64 370.05 385.25 371.00 374.00
C 366.96 372.77 365.25 376.73 363.00 379.00 Z"/>
</g>
<g fill="#F7E5DD" fill-opacity="0.17" stroke="None">
<path d="
M 220.00 388.00 
C 214.83 383.85 207.89 381.09 204.00 375.00
C 205.11 380.67 214.92 386.81 220.00 388.00 Z"/>
</g>
<g fill="#F8E1D7" fill-opacity="0.32" stroke="None">
<path d="
M 363.00 379.00 
C 361.63 380.38 359.45 381.45 358.00 383.00
C 358.00 383.00 358.25 383.72 358.00 384.00
C 361.68 381.60 365.48 378.88 368.00 375.00
C 366.97 374.88 363.83 378.29 363.00 379.00 Z"/>
</g>
<g fill="#F8E4D8" fill-opacity="0.22" stroke="None">
<path d="
M 179.00 380.00 
C 182.38 377.05 191.19 375.51 189.22 381.22 C 187.25 386.94 178.70 387.06 179.00 381.00
C 177.08 390.70 191.01 385.28 192.00 378.00
C 188.00 375.58 181.36 374.80 179.00 380.00 Z"/>
</g>
<g fill="#FAEBE2" fill-opacity="0.18" stroke="None">
<path d="
M 257.00 380.00 
C 248.03 383.23 260.77 392.56 268.00 391.00 C 275.22 389.43 282.84 386.86 289.00 382.00
C 290.75 380.38 292.26 377.74 294.00 376.00
C 284.83 386.26 260.92 399.20 254.00 381.00
C 255.36 381.59 256.23 380.39 257.00 380.00 Z"/>
</g>
<g fill="#FAE7DE" fill-opacity="0.12" stroke="None">
<path d="
M 287.00 392.00 
C 294.14 389.42 301.24 382.03 306.00 376.00
C 300.33 382.13 292.48 386.28 287.00 392.00 Z"/>
</g>
<g fill="#000000" fill-opacity="0.00" stroke="None">
<path d="
M 179.00 380.00 
C 179.00 380.00 179.02 380.50 179.00 381.00
C 178.70 387.06 187.25 386.94 189.22 381.22 C 191.19 375.51 182.38 377.05 179.00 380.00 Z"/>
</g>
<g fill="#FADED2" fill-opacity="0.16" stroke="None">
<path d="
M 189.00 392.00 
C 193.18 390.69 195.30 386.22 199.00 384.00
C 203.65 391.21 221.04 401.89 229.00 396.00
C 216.93 396.70 206.09 391.94 198.00 383.00
C 195.79 386.63 191.76 389.11 189.00 392.00 Z"/>
</g>
<g fill="#FADDCE" fill-opacity="0.18" stroke="None">
<path d="
M 307.00 396.00 
C 312.36 393.51 316.50 388.66 321.00 385.00
C 325.46 394.29 336.59 401.43 347.00 397.00
C 336.36 398.98 325.85 394.15 322.00 384.00
C 317.11 387.37 311.17 391.65 307.00 396.00 Z"/>
</g>
<g fill="#FAD4C5" fill-opacity="0.18" stroke="None">
<path d="
M 230.00 396.00 
C 235.60 396.37 238.71 390.15 244.00 390.00
C 247.11 397.67 265.09 403.11 272.00 398.00
C 264.20 397.99 253.42 399.95 247.75 393.25 C 242.08 386.55 236.28 392.71 230.00 396.00 Z"/>
</g>
<g fill="#FAD7C8" fill-opacity="0.13" stroke="None">
<path d="
M 273.00 398.00 
C 276.95 397.85 283.84 395.46 286.00 392.00
C 282.20 393.49 275.90 395.65 273.00 398.00 Z"/>
</g>
<g fill="#FCCCB3" fill-opacity="0.27" stroke="None">
<path d="
M 295.00 398.00 
C 295.00 398.00 294.75 398.80 295.00 399.00
C 297.74 401.28 304.31 398.70 306.00 396.00
C 302.33 398.31 299.22 397.61 295.00 398.00 Z"/>
</g>
</svg>